<svg width="186" height="186" viewBox="0 0 186 186" fill="none" xmlns="http://www.w3.org/2000/svg">
<g filter="url(#filter0_dd_57_16130)">
<rect x="5" y="1" width="176" height="176" rx="4" fill="#FAFAFA"/>
<rect x="5.5" y="1.5" width="175" height="175" rx="3.5" stroke="#D4D4D8"/>
<path d="M101.657 69.5381C102.938 69.5381 104.194 69.84 105.284 70.4099C106.374 70.9797 107.254 71.7951 107.828 72.7647L111.008 78.1455C111.569 77.9509 112.128 77.7543 112.671 77.5267C113.217 77.2959 113.849 77.2582 114.428 77.4217C115.007 77.5852 115.485 77.9366 115.758 78.3985C116.03 78.8604 116.075 79.3951 115.882 79.8849C115.688 80.3746 115.273 80.7794 114.727 81.0101C113.591 81.4888 113.071 81.6367 113.071 81.6367L115.27 85.3595C115.751 86.171 115.999 87.0643 115.999 87.9712V92.8908C115.999 93.7122 115.794 94.5243 115.398 95.2741C115.002 96.024 114.423 96.6946 113.699 97.2422V99.702C113.699 100.476 113.336 101.219 112.689 101.766C112.042 102.314 111.164 102.621 110.249 102.621C109.334 102.621 108.457 102.314 107.81 101.766C107.163 101.219 106.799 100.476 106.799 99.702V98.729H79.2008V99.702C79.2008 100.476 78.8374 101.219 78.1904 101.766C77.5434 102.314 76.666 102.621 75.751 102.621C74.8361 102.621 73.9586 102.314 73.3116 101.766C72.6646 101.219 72.3012 100.476 72.3012 99.702V97.2422C70.889 96.1718 70.0013 94.6189 70.0013 92.8908V87.9712C70.0017 87.0652 70.2513 86.1717 70.7304 85.3615L72.929 81.6367C72.3718 81.4416 71.8211 81.2333 71.2777 81.012C71.0066 80.8982 70.7648 80.7403 70.5659 80.5472C70.3671 80.3542 70.2153 80.1298 70.1192 79.887C70.023 79.6442 69.9844 79.3878 70.0057 79.1323C70.0269 78.8769 70.1075 78.6275 70.2428 78.3985C70.521 77.9386 71.0021 77.5899 71.5818 77.4278C72.1616 77.2657 72.7935 77.3033 73.3407 77.5325C73.8835 77.753 74.4339 77.9574 74.992 78.1455L78.1728 72.7647C78.7459 71.7951 79.6267 70.9797 80.7165 70.4099C81.8064 69.84 83.0622 69.5381 84.3434 69.5381H101.657ZM108.718 82.9737C104.808 84.0187 99.2444 85.1066 93.0002 85.1066C86.756 85.1066 81.1925 84.0168 77.2827 82.9737L74.8449 87.0993C74.6846 87.3699 74.6011 87.6685 74.6011 87.9712V92.8908C74.6011 93.4069 74.8434 93.9019 75.2747 94.2669C75.706 94.6318 76.291 94.8368 76.901 94.8368H109.099C109.709 94.8368 110.294 94.6318 110.726 94.2669C111.157 93.9019 111.399 93.4069 111.399 92.8908V87.9712C111.399 87.6691 111.315 87.3713 111.155 87.1013L108.718 82.9737ZM82.6507 87.0526C83.5656 87.0526 84.4431 87.3602 85.0901 87.9076C85.737 88.455 86.1005 89.1975 86.1005 89.9717C86.1005 90.7459 85.737 91.4884 85.0901 92.0358C84.4431 92.5832 83.5656 92.8908 82.6507 92.8908C81.7357 92.8908 80.8582 92.5832 80.2113 92.0358C79.5643 91.4884 79.2008 90.7459 79.2008 89.9717C79.2008 89.1975 79.5643 88.455 80.2113 87.9076C80.8582 87.3602 81.7357 87.0526 82.6507 87.0526ZM103.35 87.0526C104.265 87.0526 105.142 87.3602 105.789 87.9076C106.436 88.455 106.799 89.1975 106.799 89.9717C106.799 90.7459 106.436 91.4884 105.789 92.0358C105.142 92.5832 104.265 92.8908 103.35 92.8908C102.435 92.8908 101.557 92.5832 100.91 92.0358C100.263 91.4884 99.8998 90.7459 99.8998 89.9717C99.8998 89.1975 100.263 88.455 100.91 87.9076C101.557 87.3602 102.435 87.0526 103.35 87.0526ZM101.657 73.4302H84.3434C83.9164 73.4304 83.4979 73.5312 83.1347 73.7212C82.7716 73.9113 82.4782 74.1832 82.2873 74.5064L79.3664 79.4435C82.9267 80.3484 87.7242 81.2144 93.0002 81.2144C98.2761 81.2144 103.074 80.3484 106.632 79.4435L103.713 74.5064C103.522 74.1832 103.229 73.9113 102.866 73.7212C102.502 73.5312 102.084 73.4304 101.657 73.4302Z" fill="#52525B"/>
</g>
<defs>
<filter id="filter0_dd_57_16130" x="0" y="0" width="186" height="186" filterUnits="userSpaceOnUse" color-interpolation-filters="sRGB">
<feFlood flood-opacity="0" result="BackgroundImageFix"/>
<feColorMatrix in="SourceAlpha" type="matrix" values="0 0 0 0 0 0 0 0 0 0 0 0 0 0 0 0 0 0 127 0" result="hardAlpha"/>
<feMorphology radius="2" operator="erode" in="SourceAlpha" result="effect1_dropShadow_57_16130"/>
<feOffset dy="2"/>
<feGaussianBlur stdDeviation="2"/>
<feColorMatrix type="matrix" values="0 0 0 0 0 0 0 0 0 0 0 0 0 0 0 0 0 0 0.1 0"/>
<feBlend mode="normal" in2="BackgroundImageFix" result="effect1_dropShadow_57_16130"/>
<feColorMatrix in="SourceAlpha" type="matrix" values="0 0 0 0 0 0 0 0 0 0 0 0 0 0 0 0 0 0 127 0" result="hardAlpha"/>
<feMorphology radius="1" operator="erode" in="SourceAlpha" result="effect2_dropShadow_57_16130"/>
<feOffset dy="4"/>
<feGaussianBlur stdDeviation="3"/>
<feColorMatrix type="matrix" values="0 0 0 0 0 0 0 0 0 0 0 0 0 0 0 0 0 0 0.1 0"/>
<feBlend mode="normal" in2="effect1_dropShadow_57_16130" result="effect2_dropShadow_57_16130"/>
<feBlend mode="normal" in="SourceGraphic" in2="effect2_dropShadow_57_16130" result="shape"/>
</filter>
</defs>
</svg>
