<svg width="24" height="24" viewBox="0 0 24 24" fill="none" xmlns="http://www.w3.org/2000/svg">
<path d="M21 22H3C2.59 22 2.25 21.66 2.25 21.25C2.25 20.84 2.59 20.5 3 20.5H21C21.41 20.5 21.75 20.84 21.75 21.25C21.75 21.66 21.41 22 21 22Z" fill="#006FEE"/>
<path d="M19.02 3.47967C17.08 1.53967 15.18 1.48967 13.19 3.47967L11.98 4.68967C11.88 4.78967 11.84 4.94967 11.88 5.08967C12.64 7.73967 14.76 9.85967 17.41 10.6197C17.45 10.6297 17.49 10.6397 17.53 10.6397C17.64 10.6397 17.74 10.5997 17.82 10.5197L19.02 9.30967C20.01 8.32967 20.49 7.37967 20.49 6.41967C20.5 5.42967 20.02 4.46967 19.02 3.47967Z" fill="#006FEE"/>
<path d="M15.61 11.5298C15.32 11.3898 15.04 11.2498 14.77 11.0898C14.55 10.9598 14.34 10.8198 14.13 10.6698C13.96 10.5598 13.76 10.3998 13.57 10.2398C13.55 10.2298 13.48 10.1698 13.4 10.0898C13.07 9.8098 12.7 9.4498 12.37 9.0498C12.34 9.0298 12.29 8.9598 12.22 8.8698C12.12 8.7498 11.95 8.5498 11.8 8.3198C11.68 8.1698 11.54 7.9498 11.41 7.7298C11.25 7.4598 11.11 7.1898 10.97 6.9098C10.9488 6.86441 10.9283 6.81924 10.9084 6.77434C10.7608 6.44102 10.3262 6.34358 10.0684 6.60133L4.33995 12.3298C4.20995 12.4598 4.08995 12.7098 4.05995 12.8798L3.51995 16.7098C3.41995 17.3898 3.60995 18.0298 4.02995 18.4598C4.38995 18.8098 4.88995 18.9998 5.42995 18.9998C5.54995 18.9998 5.66995 18.9898 5.78995 18.9698L9.62995 18.4298C9.80995 18.3998 10.06 18.2798 10.18 18.1498L15.9013 12.4285C16.1608 12.1689 16.0629 11.7235 15.7253 11.5794C15.6873 11.5632 15.6489 11.5467 15.61 11.5298Z" fill="#006FEE"/>
</svg>
