<svg width="174" height="55" viewBox="0 0 174 55" fill="none" xmlns="http://www.w3.org/2000/svg">
<path d="M53.265 20.6009C53.0639 20.6009 52.862 20.5905 52.6591 20.5692L37.0006 18.5001C36.228 18.4187 35.4997 18.9081 35.2727 19.6638L31.3984 18.4676C32.188 15.8357 34.7228 14.1344 37.4177 14.414L53.0762 16.4832C53.8524 16.5654 54.6048 16.1394 54.9439 15.4245L55.5302 14.1886L36.9534 11.6024C34.6931 11.3445 32.8321 9.57822 32.4283 7.30732L31.468 1.90625L36.4137 6.57803C36.5039 7.08427 36.9027 7.46296 37.4062 7.52033L61.6533 10.754L58.5935 17.2056C57.6044 19.2908 55.5134 20.6009 53.265 20.6009Z" fill="#7230FF"/>
<path d="M118.854 20.6009C119.055 20.6009 119.257 20.5905 119.46 20.5693L135.119 18.5001C135.891 18.4187 136.62 18.9081 136.846 19.6639L140.721 18.4677C139.931 15.8357 137.397 14.1344 134.701 14.414L119.043 16.4832C118.267 16.5654 117.514 16.1394 117.175 15.4245L116.589 14.1886L135.166 11.6024C137.426 11.3445 139.287 9.57822 139.691 7.30732L140.651 1.90625L135.705 6.57803C135.615 7.08427 135.216 7.46296 134.713 7.52033L110.466 10.754L113.526 17.2056C114.515 19.2908 116.606 20.6009 118.854 20.6009Z" fill="#7230FF"/>
<path d="M107.132 20.4486L105.626 17.2728C105.046 16.0496 103.826 15.2718 102.488 15.2718H69.6551C68.3168 15.2718 67.0967 16.0496 66.5166 17.2728L65.0104 20.4486H60.4971L63.9693 13.1597C64.5506 11.9394 65.7688 11.1641 67.1052 11.1641H105.033C106.371 11.1641 107.592 11.9424 108.171 13.1663L111.622 20.4486L107.132 20.4486Z" fill="#7230FF"/>
<path d="M12.9762 47.0668L16.7511 52.4344H12.9917L9.35006 47.2573H4.77651V52.4344H1.5459V36.1094H11.0985C15.5869 36.1094 16.7511 39.6104 16.7511 41.4983C16.7511 43.5513 15.8706 46.3323 12.9762 47.0668ZM13.7688 41.8684C13.7688 40.8219 13.3482 38.8573 11.0977 38.8573H4.77531V44.5094H11.4156C13.1911 44.5094 13.7696 42.9149 13.7688 41.8684Z" fill="#7230FF"/>
<path d="M23.5508 52.4344V36.1094H26.7814V52.4344H23.5508Z" fill="#7230FF"/>
<path d="M52.028 44.5237V52.4382H48.7974V50.8175C47.2464 51.9883 45.1944 52.6909 42.7723 52.6909C37.1582 52.6909 33.5166 48.9235 33.5166 44.2751C33.5166 39.6263 37.1582 35.8594 42.7723 35.8594C48.7986 35.8594 51.3755 38.7518 51.3755 38.7518L49.1062 40.5828C49.1062 40.5828 47.3431 38.7336 42.7723 38.7336C38.5955 38.7336 36.8451 40.8177 36.8451 44.2751C36.8451 47.7334 38.5955 49.8174 42.7723 49.8174C45.5326 49.8174 47.2102 48.8876 48.0446 47.2717H43.6807V44.5237L52.028 44.5237Z" fill="#7230FF"/>
<path d="M70.9566 36.1094H74.1872V52.4344H70.9566V45.3258H62.2376V52.4344H59.0078V36.1094H62.2376V42.5779H70.9566V36.1094Z" fill="#7230FF"/>
<path d="M93.3253 36.1094V38.8573H87.8413V52.4344H84.6119V38.8573H79.1279V36.1094H93.3253Z" fill="#7230FF"/>
<path d="M110.078 47.5875L112.584 49.2063C111 51.317 108.338 52.6948 104.949 52.6948C99.335 52.6948 95.6934 48.9266 95.6934 44.279C95.6934 39.6315 99.335 35.8633 104.949 35.8633C108.335 35.8633 110.994 37.2383 112.579 39.3449L110.074 40.9637C109.188 39.537 107.534 38.7375 104.95 38.7375C100.773 38.7375 99.0226 40.8216 99.0226 44.279C99.0226 47.7373 100.773 49.8213 104.95 49.8213C107.539 49.8213 109.193 49.0198 110.078 47.5875Z" fill="#7230FF"/>
<path d="M126.808 36.1094L132.694 52.4344H129.463L128.167 48.8393H120.681L119.385 52.4344H116.155L122.041 36.1094H126.808ZM127.178 46.0922L124.569 38.8573H124.282L121.673 46.0922H127.178Z" fill="#7230FF"/>
<path d="M149.059 47.0668L152.834 52.4344H149.075L145.433 47.2573H140.86V52.4344H137.629V36.1094H147.181C151.67 36.1094 152.834 39.6104 152.834 41.4983C152.834 43.5513 151.954 46.3323 149.059 47.0668ZM149.852 41.8684C149.852 40.8219 149.431 38.8573 147.181 38.8573H140.859V44.5094H147.499C149.274 44.5094 149.853 42.9149 149.852 41.8684Z" fill="#7230FF"/>
<path d="M172.71 47.7955C172.71 50.6948 169.904 52.6957 165.552 52.6957C161.198 52.6957 157.111 50.5822 157.111 50.5822L158.436 47.8888C158.436 47.8888 162.491 49.7428 165.265 49.7428C168.039 49.7428 169.682 49.0946 169.682 47.7528C169.682 46.4109 168.688 45.6881 164.549 45.6881C160.409 45.6881 158.148 44.2828 158.148 41.2649C158.148 37.6299 161.199 35.8711 165.552 35.8711C169.448 35.8711 171.849 37.2953 171.849 37.2953L170.743 40.0231C170.743 40.0231 168.019 38.8083 165.287 38.8083C162.556 38.8083 161.207 39.9266 161.207 40.9654C161.207 42.0042 161.462 42.7581 166.241 42.7581C170.442 42.7581 172.71 44.8958 172.71 47.7955Z" fill="#7230FF"/>
</svg>
